# xmcd
#
# Track frame offsets: 
#        183
#        37698
#        58560
#        95650
#        115700
#
# Disc length: 2767 seconds
#
# Revision: 3
# Processed by: cddbd v1.5.2PL0 Copyright (c) Steve Scherf et al.
# Submitted via: ExactAudioCopy v0.99pb5
#
DISCID=330acd05
DTITLE=Jan Garbarek - Bobo Stenson Quartet - Witchi-Tai-To
DYEAR=1973
DGENRE=Jazz
TTITLE0=A. I. R.
TTITLE1=Kukka
TTITLE2=Hasta Siempre
TTITLE3=Witchi-Tai-To
TTITLE4=Desireless
EXTD=YEAR: 1973
EXTT0=
EXTT1=
EXTT2=
EXTT3=
EXTT4=
PLAYORDER=
